<?xml version="1.0" standalone="no"?>
<!DOCTYPE svg PUBLIC "-//W3C//DTD SVG 20010904//EN"
 "http://www.w3.org/TR/2001/REC-SVG-20010904/DTD/svg10.dtd">
<svg version="1.0" xmlns="http://www.w3.org/2000/svg"
 width="260.000000pt" height="260.000000pt" viewBox="0 0 260.000000 260.000000"
 preserveAspectRatio="xMidYMid meet">
<metadata>
Created by potrace 1.11, written by Peter Selinger 2001-2013
</metadata>
<g transform="translate(0.000000,260.000000) scale(0.100000,-0.100000)"
fill="#000000" stroke="none">
<path d="M1057 2196 c-60 -22 -97 -57 -128 -123 -18 -40 -20 -65 -20 -345 0
-167 0 -314 1 -328 0 -18 7 -9 24 33 93 225 285 377 528 417 81 13 248 24 248
16 0 -11 -792 -788 -797 -782 -2 1 -5 25 -8 52 -16 150 -32 220 -71 325 -107
286 -342 440 -693 454 l-105 5 125 -121 c548 -534 749 -738 749 -760 0 -19 34
11 168 149 192 196 653 662 656 662 3 0 -1 -80 -8 -176 -7 -80 -45 -223 -78
-287 -66 -131 -163 -226 -304 -296 -79 -40 -200 -77 -284 -87 -56 -7 -120 -22
-100 -23 8 -1 42 -12 75 -26 101 -42 164 -29 249 49 76 71 136 68 337 -13 221
-89 259 -89 374 3 52 42 107 44 223 11 166 -48 244 -36 339 53 l43 39 0 459 0
458 -61 -123 c-33 -68 -63 -120 -66 -117 -8 7 10 50 70 174 l51 104 -23 41
c-12 23 -36 53 -53 66 -61 49 -75 50 -526 51 -389 0 -430 -2 -500 -20 -128
-32 -257 -90 -351 -157 -24 -17 -24 -17 -13 3 19 36 84 95 147 136 l60 38
-120 -1 c-75 0 -134 -5 -158 -13z m1071 -200 c73 -38 74 -141 1 -185 -58 -35
-142 7 -154 77 -14 82 78 147 153 108z m-296 -778 c130 -52 221 -70 358 -70
69 0 145 4 170 10 60 15 62 8 3 -11 -87 -28 -157 -38 -243 -36 -102 2 -171 19
-270 66 -65 31 -190 116 -190 128 0 3 23 -9 51 -27 28 -17 83 -44 121 -60z"/>
<path d="M26 1808 c9 -262 106 -475 269 -594 22 -16 42 -31 45 -34 3 -3 33
-20 68 -38 97 -49 241 -87 370 -98 37 -3 73 -7 80 -9 6 -3 12 -1 12 3 0 4 -93
102 -206 217 -258 263 -637 645 -639 645 -1 0 0 -42 1 -92z"/>
<path d="M2557 1035 c-85 -79 -182 -94 -327 -50 -114 35 -171 34 -221 -2 -102
-74 -100 -73 -159 -73 -59 0 -122 19 -285 85 -59 24 -111 38 -151 40 -61 4
-61 4 -125 -49 -101 -84 -161 -93 -271 -43 -83 38 -95 40 -99 20 -2 -10 -4
-108 -3 -218 1 -178 4 -205 22 -246 23 -53 77 -101 131 -118 27 -8 231 -11
692 -11 l654 0 51 24 c52 24 91 66 113 121 8 21 11 108 9 288 l-3 257 -28 -25z"/>
</g>
</svg>
